<svg width="81" height="80" viewBox="0 0 81 80" fill="none" xmlns="http://www.w3.org/2000/svg">
<path d="M40.7164 0C18.6664 0 0.716431 17.9405 0.716431 40C0.716431 62.0595 18.6664 80 40.7164 80C62.7664 80 80.7164 62.0595 80.7164 40C80.7164 17.9405 62.7664 0 40.7164 0ZM40.7164 76.5956C20.4997 76.5956 4.04971 60.1702 4.04971 40C4.04971 19.8298 20.4997 3.40436 40.7164 3.40436C60.9331 3.40436 77.3831 19.8127 77.3831 40C77.3831 60.1873 60.9331 76.5956 40.7164 76.5956Z" fill="white"/>
<path d="M58.4164 38.6383L30.0331 17.3448C29.2999 16.766 28.2664 16.9023 27.6999 17.6511C27.1331 18.4 27.2666 19.4555 27.9999 20.0341C28.0166 20.0511 28.0499 20.0681 28.0666 20.0851L54.6164 40L28.0664 59.8978C27.3164 60.4595 27.1664 61.5148 27.7164 62.2807C28.2664 63.0467 29.2997 63.1999 30.0497 62.6382L58.4332 41.3787C59.1832 40.817 59.3332 39.7618 58.7832 38.9958C58.6664 38.8595 58.5497 38.7405 58.4164 38.6383Z" fill="white"/>
</svg>
