<svg width="109" height="59" viewBox="0 0 109 59" fill="none" xmlns="http://www.w3.org/2000/svg">
<g filter="url(#filter0_d_0_1)">
<rect width="100" height="50" fill="white"/>
</g>
<path d="M30.5565 36.452V38H8.8125V36.452H17.5605V16.724H9.9285V12.836H29.4405V16.724H21.8085V36.452H30.5565ZM57.7911 36.452V38H30.5391V36.452H39.2511C37.1631 35.396 35.4951 33.848 34.2471 31.808C33.0231 29.768 32.4111 27.464 32.4111 24.896C32.4111 21.224 33.6831 18.2 36.2271 15.824C38.7711 13.424 41.8551 12.224 45.4791 12.224C49.1271 12.224 52.1511 13.28 54.5511 15.392L52.2831 18.632C51.2991 17.792 50.3031 17.216 49.2951 16.904C48.3111 16.568 47.1591 16.4 45.8391 16.4C43.2711 16.4 41.1231 17.168 39.3951 18.704C37.6911 20.24 36.8391 22.34 36.8391 25.004C36.8391 27.668 37.6791 29.816 39.3591 31.448C41.0391 33.056 43.0671 33.86 45.4431 33.86C47.8431 33.86 49.8471 33.344 51.4551 32.312V25.4H55.7031V34.004C54.8151 34.988 53.7351 35.804 52.4631 36.452H57.7911ZM93.1732 36.452V38H85.4332V18.344L76.6492 35.804H74.2732L65.5252 18.344V38H57.7852V36.452H61.2772V12.836H67.9012L75.4972 28.64L83.0932 12.836H89.6812V36.452H93.1732Z" fill="black"/>
<defs>
<filter id="filter0_d_0_1" x="0" y="0" width="109" height="59" filterUnits="userSpaceOnUse" color-interpolation-filters="sRGB">
<feFlood flood-opacity="0" result="BackgroundImageFix"/>
<feColorMatrix in="SourceAlpha" type="matrix" values="0 0 0 0 0 0 0 0 0 0 0 0 0 0 0 0 0 0 127 0" result="hardAlpha"/>
<feOffset dx="5" dy="5"/>
<feGaussianBlur stdDeviation="2"/>
<feComposite in2="hardAlpha" operator="out"/>
<feColorMatrix type="matrix" values="0 0 0 0 0 0 0 0 0 0 0 0 0 0 0 0 0 0 0.3 0"/>
<feBlend mode="normal" in2="BackgroundImageFix" result="effect1_dropShadow_0_1"/>
<feBlend mode="normal" in="SourceGraphic" in2="effect1_dropShadow_0_1" result="shape"/>
</filter>
</defs>
</svg>
