<svg width="86" height="26" viewBox="0 0 86 26" fill="none" xmlns="http://www.w3.org/2000/svg">
<path d="M22.5565 24.452V26H0.8125V24.452H9.5605V4.724H1.9285V0.835998H21.4405V4.724H13.8085V24.452H22.5565ZM49.7911 24.452V26H22.5391V24.452H31.2511C29.1631 23.396 27.4951 21.848 26.2471 19.808C25.0231 17.768 24.4111 15.464 24.4111 12.896C24.4111 9.224 25.6831 6.2 28.2271 3.824C30.7711 1.424 33.8551 0.223999 37.4791 0.223999C41.1271 0.223999 44.1511 1.28 46.5511 3.392L44.2831 6.632C43.2991 5.792 42.3031 5.216 41.2951 4.904C40.3111 4.568 39.1591 4.4 37.8391 4.4C35.2711 4.4 33.1231 5.168 31.3951 6.704C29.6911 8.24 28.8391 10.34 28.8391 13.004C28.8391 15.668 29.6791 17.816 31.3591 19.448C33.0391 21.056 35.0671 21.86 37.4431 21.86C39.8431 21.86 41.8471 21.344 43.4551 20.312V13.4H47.7031V22.004C46.8151 22.988 45.7351 23.804 44.4631 24.452H49.7911ZM85.1732 24.452V26H77.4332V6.344L68.6492 23.804H66.2732L57.5252 6.344V26H49.7852V24.452H53.2772V0.835998H59.9012L67.4972 16.64L75.0932 0.835998H81.6812V24.452H85.1732Z" fill="url(#paint0_radial_0_1)"/>
<defs>
<radialGradient id="paint0_radial_0_1" cx="0" cy="0" r="1" gradientUnits="userSpaceOnUse" gradientTransform="translate(111 38) rotate(-159.495) scale(157.584 107.796)">
<stop stop-color="#FF0000"/>
<stop offset="1" stop-color="#6500E6"/>
</radialGradient>
</defs>
</svg>
